# xmcd
#
# Track frame offsets:
#	150
#	6586
#	28229
#	45132
#	58326
#	68563
#	82600
#	95680
#	102107
#	113541
#	124915
#	138513
#	150570
#	161120
#	172647
#
# Disc length: 2563 seconds
#
# Revision: 1
# Processed by: cddbd v1.5.1PL2 Copyright (c) Steve Scherf et al.
# Submitted via: audiograbber 1.83.01
#
DISCID=b50a010f
DTITLE=Diverse - The Best of Country Music Volume 2
DYEAR=2005
DGENRE=
TTITLE0=Tammy Wynette - Welcome to my World
TTITLE1=Dottie West - Patsy Cline Medley
TTITLE2=Tanya Tucker -The Night They Drove old Dixie down
TTITLE3=Kathy Mattea - Ball and Chain
TTITLE4=Waylon Jennings - White Lightning
TTITLE5=George Jones - Cold, Cold Heart
TTITLE6=Wanda Jackson - I fall to pieces
TTITLE7=Jimmy Reeves - Have I told you lately that I love you?
TTITLE8=Willie Nelson - Night Life
TTITLE9=Don Gibson - Oh, Lonesome Me
TTITLE10=The Jordanaires - Peace in the Valley
TTITLE11=Johnny Cash - Next the Line
TTITLE12=Slim Whitman - Rose Marie
TTITLE13=Conway Twitty - Broken Heart
TTITLE14=Marty Robbins - El Paso
EXTD=
EXTT0=
EXTT1=
EXTT2=
EXTT3=
EXTT4=
EXTT5=
EXTT6=
EXTT7=
EXTT8=
EXTT9=
EXTT10=
EXTT11=
EXTT12=
EXTT13=
EXTT14=
PLAYORDER=
